<?xml version="1.0" encoding="UTF-8"?>
<svg version="1.1" xmlns="http://www.w3.org/2000/svg" width="710" height="121">
<path d="M0 0 C234.3 0 468.6 0 710 0 C710 39.93 710 79.86 710 121 C475.7 121 241.4 121 0 121 C0 81.07 0 41.14 0 0 Z " fill="#FBFBFB" transform="translate(0,0)"/>
<path d="M0 0 C1.47339844 1.30710937 1.47339844 1.30710937 2.9765625 2.640625 C5.17870564 4.75804873 5.17870564 4.75804873 7.375 5.75 C11.84278903 16.2998522 11.83307803 26.52708828 11.375 37.75 C10.715 37.75 10.055 37.75 9.375 37.75 C9.2925 38.575 9.21 39.4 9.125 40.25 C7.49328266 47.8646809 4.63954499 52.17982152 -1.91796875 56.42578125 C-3.92757 57.73145115 -3.92757 57.73145115 -4.625 60.75 C-6.24804688 61.62548828 -6.24804688 61.62548828 -8.34375 62.3203125 C-9.11203125 62.57683594 -9.8803125 62.83335938 -10.671875 63.09765625 C-11.48140625 63.35417969 -12.2909375 63.61070313 -13.125 63.875 C-13.90359375 64.13925781 -14.6821875 64.40351562 -15.484375 64.67578125 C-24.51735576 67.62196868 -33.24565308 67.91393545 -42.6875 67.875 C-43.62916016 67.87886719 -44.57082031 67.88273437 -45.54101562 67.88671875 C-59.66508929 67.86706103 -59.66508929 67.86706103 -65.6875 65.3125 C-68.2445292 64.26077844 -70.37975449 63.5882669 -73.125 63 C-80.40308689 60.40068325 -84.95583927 54.98295545 -88.6171875 48.3515625 C-89.54140309 46.57561779 -89.54140309 46.57561779 -91.625 45.75 C-91.69847656 46.87148437 -91.69847656 46.87148437 -91.7734375 48.015625 C-91.84820312 49.00046875 -91.92296875 49.9853125 -92 51 C-92.06960938 51.97453125 -92.13921875 52.9490625 -92.2109375 53.953125 C-93.00234003 59.29882511 -95.52534825 62.28807186 -99.625 65.75 C-107.80466126 68.65408121 -120.70858059 69.9043842 -128.890625 66.12109375 C-133.06397795 62.82188905 -135.81515634 58.19944064 -138.625 53.75 C-139.04910156 53.09128906 -139.47320312 52.43257813 -139.91015625 51.75390625 C-141.70360457 48.80119476 -143.02162684 45.79839286 -144.1875 42.5625 C-145.70442842 38.21519224 -145.70442842 38.21519224 -148.625 34.75 C-150.5863738 34.34302343 -150.5863738 34.34302343 -152.73828125 34.15234375 C-154.02089844 34.01957031 -155.30351562 33.88679688 -156.625 33.75 C-156.66258423 35.19620728 -156.66258423 35.19620728 -156.70092773 36.67163086 C-156.79485306 40.23687842 -156.89510939 43.80192433 -156.99731445 47.36694336 C-157.04071985 48.91214289 -157.08239071 50.45739214 -157.12231445 52.00268555 C-157.17988199 54.21939096 -157.24361424 56.4358448 -157.30859375 58.65234375 C-157.33366249 59.69454323 -157.33366249 59.69454323 -157.35923767 60.75779724 C-157.51112829 65.63612829 -157.51112829 65.63612829 -158.625 66.75 C-170.835 66.75 -183.045 66.75 -195.625 66.75 C-195.955 41.34 -196.285 15.93 -196.625 -10.25 C-170.555 -10.25 -144.485 -10.25 -117.625 -10.25 C-117.625 -9.59 -117.625 -8.93 -117.625 -8.25 C-116.96113281 -8.20101563 -116.29726563 -8.15203125 -115.61328125 -8.1015625 C-104.15175803 -7.13109776 -104.15175803 -7.13109776 -99.375 -1.9375 C-97.04220454 0.97550356 -95.80641943 2.94019198 -95.625 6.75 C-95.51671875 7.7709375 -95.51671875 7.7709375 -95.40625 8.8125 C-95.06355774 13.88434549 -95.69218615 17.25934209 -98.9296875 21.24609375 C-104.38550243 26.08592957 -111.75327216 27.90620695 -118.875 27.8125 C-119.76703125 27.80347656 -120.6590625 27.79445312 -121.578125 27.78515625 C-122.25359375 27.77355469 -122.9290625 27.76195312 -123.625 27.75 C-123.625 29.4 -123.625 31.05 -123.625 32.75 C-121.26999052 32.63482579 -118.91650927 32.50812022 -116.5625 32.375 C-115.25152344 32.30539063 -113.94054687 32.23578125 -112.58984375 32.1640625 C-105.76628091 31.51902769 -105.76628091 31.51902769 -99.91796875 28.27734375 C-99.37076172 27.49037109 -99.37076172 27.49037109 -98.8125 26.6875 C-96.625 23.75 -96.625 23.75 -94.625 22.75 C-94.06414859 20.8489868 -93.5135759 18.94403799 -93.02783203 17.02246094 C-91.03209744 9.12866207 -89.06187803 3.12339383 -82.625 -2.25 C-81.85929687 -2.9615625 -81.85929687 -2.9615625 -81.078125 -3.6875 C-61.52395459 -19.9503744 -18.26579957 -15.5679454 0 0 Z " fill="#060606" transform="translate(405.625,25.25)"/>
<path d="M0 0 C13.53 0 27.06 0 41 0 C41 10.09615385 41 10.09615385 40.5625 13.9453125 C40.42714844 15.22148437 40.42714844 15.22148437 40.2890625 16.5234375 C40.09892636 18.23466276 39.90628812 19.94561218 39.7109375 21.65625 C38.89118766 29.45558421 38.90498916 37.16556484 39 45 C43.10762763 45.04992909 47.21513448 45.08596646 51.32299805 45.10986328 C52.71658409 45.1198393 54.11014966 45.13342501 55.50366211 45.15087891 C63.29652406 45.24594791 70.42442592 44.95747285 78 43 C79.65 43 81.3 43 83 43 C83 49.6 83 56.2 83 63 C83.99 63 84.98 63 86 63 C86.08765625 62.48179688 86.1753125 61.96359375 86.265625 61.4296875 C87.28207729 58.06674428 89.03573998 55.16949141 90.75 52.125 C96.6079273 41.39025678 100.13644904 30.23675248 102.91015625 18.375 C104.38874813 12.19377225 106.22957727 6.10246771 108 0 C115.79619588 -0.05057624 123.5923497 -0.08568114 131.38867188 -0.10986328 C134.04265931 -0.11994089 136.6966356 -0.13360313 139.35058594 -0.15087891 C143.15823107 -0.17504992 146.96572984 -0.18646535 150.7734375 -0.1953125 C152.56254044 -0.21079636 152.56254044 -0.21079636 154.38778687 -0.22659302 C155.48877716 -0.22674408 156.58976746 -0.22689514 157.72412109 -0.22705078 C159.1830629 -0.23371262 159.1830629 -0.23371262 160.67147827 -0.24050903 C163 0 163 0 165 2 C165.90904344 4.68342632 166.73219395 7.33904339 167.5 10.0625 C167.83644531 11.22712769 167.83644531 11.22712769 168.1796875 12.4152832 C169.24641712 16.15315087 170.24564017 19.87218008 171 23.6875 C172.04188522 28.82679922 173.95737699 33.66587349 175.78125 38.5703125 C177 42 177 42 177.9296875 45.47265625 C179.11110702 49.36616655 180.73134597 52.72918312 182.625 56.3125 C186 62.74776786 186 62.74776786 186 65 C186.99 65.33 187.98 65.66 189 66 C189.33 69.3 189.66 72.6 190 76 C177.13 76 164.26 76 151 76 C149.38155177 71.95387942 148.52453082 68.9094503 147.875 64.6875 C147.70742188 63.61886719 147.53984375 62.55023438 147.3671875 61.44921875 C147.24601563 60.64097656 147.12484375 59.83273438 147 59 C143.37 59 139.74 59 136 59 C136 55.7 136 52.4 136 49 C137.65 49 139.3 49 141 49 C139.02 40.585 139.02 40.585 137 32 C133.55639368 35.44360632 133.04796139 37.54386924 131.8125 42.1875 C131.46832031 43.45980469 131.12414062 44.73210938 130.76953125 46.04296875 C130.51558594 47.01878906 130.26164063 47.99460938 130 49 C130.99 49 131.98 49 133 49 C133 51.97 133 54.94 133 58 C131.906875 58.144375 130.81375 58.28875 129.6875 58.4375 C126.06877013 58.88288104 126.06877013 58.88288104 123 60 C123.020625 61.175625 123.04125 62.35125 123.0625 63.5625 C123.0625 67.45179881 122.70404476 71.1668674 122 75 C119.95746599 77.04253401 115.72964589 76.25784213 112.91796875 76.31640625 C112.08449921 76.33727798 111.25102966 76.35814972 110.39230347 76.37965393 C107.65746694 76.44615101 104.92253617 76.50483778 102.1875 76.5625 C101.26105682 76.58334656 100.33461365 76.60419312 99.38009644 76.62567139 C87.60829201 76.89008599 75.8374417 77.09812958 64.0625 77.125 C62.97155029 77.12959229 61.88060059 77.13418457 60.7565918 77.13891602 C59.73476807 77.13690186 58.71294434 77.1348877 57.66015625 77.1328125 C56.37057007 77.13112061 56.37057007 77.13112061 55.05493164 77.12939453 C52.42796148 77.01812672 49.86678856 76.79054032 47.25415039 76.51147461 C42.25666842 75.99055535 37.29490617 75.78552179 32.2734375 75.68359375 C30.96289902 75.6524221 30.96289902 75.6524221 29.62588501 75.62062073 C26.87565835 75.55601374 24.12534865 75.49666027 21.375 75.4375 C19.49348151 75.39422994 17.61197096 75.35061318 15.73046875 75.30664062 C11.15372768 75.20042564 6.57690438 75.09891711 2 75 C1.98969254 74.31619263 1.97938507 73.63238525 1.96876526 72.92785645 C1.86030962 65.78970531 1.74574516 58.65167049 1.62768555 51.51367188 C1.58397583 48.85223551 1.54277819 46.19079409 1.50268555 43.52929688 C1.44467852 39.69653655 1.38107248 35.86390306 1.31640625 32.03125 C1.29969376 30.84760864 1.28298126 29.66396729 1.26576233 28.44445801 C1.15703736 21.63820385 1.15703736 21.63820385 0.48022461 14.87304688 C-0.13013196 9.95047615 0 4.96026589 0 0 Z " fill="#030404" transform="translate(420,15)"/>
<path d="M0 0 C21.13288599 -0.08021762 21.13288599 -0.08021762 30.1171875 -0.09765625 C36.25589439 -0.10962784 42.39454181 -0.12381433 48.53320312 -0.15087891 C53.48040037 -0.17255483 58.42753388 -0.18455751 63.37477493 -0.18975449 C65.26548898 -0.19345971 67.15619941 -0.20069473 69.04688644 -0.21146011 C71.68807357 -0.22590533 74.3289948 -0.22798088 76.97021484 -0.22705078 C77.75783707 -0.23424133 78.54545929 -0.24143188 79.35694885 -0.24884033 C84.77189568 -0.22810432 84.77189568 -0.22810432 87 2 C87.50244141 3.88842773 87.50244141 3.88842773 87.8515625 6.18359375 C88.04528442 7.44478027 88.04528442 7.44478027 88.24291992 8.73144531 C88.36900635 9.62444336 88.49509277 10.51744141 88.625 11.4375 C88.75688721 12.33952148 88.88877441 13.24154297 89.0246582 14.17089844 C89.90087151 20.47147813 90.39415459 26.63513326 90 33 C84.2075276 32.36809392 78.67401601 31.3298475 73 30 C73 34.95 73 39.9 73 45 C76.0009375 44.505 76.0009375 44.505 79.0625 44 C83.79252723 43.2667425 88.22445307 42.77788154 93 43 C93.09765625 49.15234375 93.09765625 49.15234375 93 51 C92.67 51.33 92.34 51.66 92 52 C91.79721553 53.51127598 91.65300914 55.03052228 91.53515625 56.55078125 C91.41817383 57.94006836 91.41817383 57.94006836 91.29882812 59.35742188 C91.14223192 61.31552149 90.9885495 63.27385648 90.83789062 65.23242188 C90.75861328 66.16248047 90.67933594 67.09253906 90.59765625 68.05078125 C90.53070557 68.90325439 90.46375488 69.75572754 90.39477539 70.6340332 C89.98450747 73.0928498 89.22736414 74.84440866 88 77 C58.64391732 77.13944354 29.3485385 76.7622997 0 76 C0 50.92 0 25.84 0 0 Z " fill="#050505" transform="translate(112,15)"/>
<path d="M0 0 C1.19310287 0.00842926 1.19310287 0.00842926 2.41030884 0.01702881 C3.24780167 0.01513046 4.08529449 0.01323212 4.94816589 0.01127625 C7.72462232 0.00756254 10.5008189 0.01828027 13.2772522 0.02947998 C15.20013905 0.03067146 17.12302649 0.03112501 19.0459137 0.03086853 C23.07854854 0.03243437 27.11109473 0.04073236 31.14370728 0.05413818 C36.32485114 0.07113956 41.50589759 0.07495226 46.68706608 0.074193 C50.65803465 0.0744643 54.62898172 0.07993884 58.59994316 0.08719444 C60.51100947 0.0903868 62.42207822 0.09234983 64.33314705 0.09308815 C66.99823321 0.09524509 69.66321391 0.1039749 72.32827759 0.11468506 C73.12570374 0.11423187 73.92312988 0.11377869 74.74472046 0.11331177 C80.19012142 0.14547421 80.19012142 0.14547421 81.30459595 1.25994873 C81.6684989 5.18797256 81.67619655 9.12984674 81.74209595 13.07244873 C81.78785767 14.17910889 81.83361938 15.28576904 81.88076782 16.42596436 C81.99371515 24.54344005 81.99371515 24.54344005 78.8475647 27.81463623 C74.6526741 29.52589259 70.48134344 31.14973427 66.17959595 32.57244873 C64.40478444 33.17640407 62.63004711 33.78057744 60.8553772 34.38494873 C59.94481567 34.69174561 59.03425415 34.99854248 58.09609985 35.31463623 C53.50844783 36.8681948 48.93827914 38.47122178 44.36709595 40.07244873 C43.53355591 40.36224609 42.70001587 40.65204346 41.84121704 40.95062256 C41.05698364 41.22414551 40.27275024 41.49766846 39.4647522 41.77947998 C38.43813477 42.13683228 38.43813477 42.13683228 37.39077759 42.50140381 C35.0064626 43.36835134 32.65586271 44.30739739 30.30459595 45.25994873 C35.35420604 45.33493152 40.40348159 45.38893792 45.45352173 45.42474365 C47.16614437 45.43969333 48.87872966 45.46006059 50.59121704 45.48626709 C59.68955346 45.62186474 68.08736413 45.66460632 76.86807251 42.90960693 C79.44597837 42.22225147 81.64899144 42.14667227 84.30459595 42.25994873 C84.35412301 46.60156698 84.39037549 50.94303448 84.41445923 55.28485107 C84.42450186 56.7611172 84.4381386 58.23736352 84.45547485 59.71356201 C84.47980016 61.83844907 84.49109635 63.96307258 84.49990845 66.08807373 C84.51038208 67.36585693 84.52085571 68.64364014 84.53164673 69.96014404 C84.19730403 74.81925795 84.19730403 74.81925795 82.30459595 77.25994873 C78.86493484 79.107945 75.96861353 79.5084717 72.10147095 79.49041748 C71.12049438 79.48848389 70.13951782 79.48655029 69.1288147 79.48455811 C67.60707642 79.46618896 67.60707642 79.46618896 66.05459595 79.44744873 C65.05557251 79.4468042 64.05654907 79.44615967 63.0272522 79.44549561 C58.74603873 79.420312 54.56976297 79.30795814 50.32144165 78.76922607 C43.99702952 78.03570074 37.66090455 78.02750546 31.3006897 77.94354248 C29.98166153 77.92276138 28.66263336 77.90198029 27.30363464 77.88056946 C23.82676982 77.82583983 20.3498509 77.7762178 16.87289429 77.72772217 C13.31297085 77.67714436 9.75312426 77.62164929 6.19326782 77.56658936 C-0.76955598 77.45961019 -7.73244946 77.35803606 -14.69540405 77.25994873 C-14.89956999 73.38573172 -15.02331942 69.51290281 -15.13290405 65.63494873 C-15.1915564 64.54053467 -15.25020874 63.44612061 -15.31063843 62.31854248 C-15.47948129 54.35880775 -15.47948129 54.35880775 -13.22964478 51.20573425 C-9.39414011 47.84065944 -5.27345316 45.98398446 -0.44540405 44.32244873 C0.94657422 43.83040603 2.33849881 43.33821141 3.7303772 42.84588623 C4.46337036 42.59290771 5.19636353 42.3399292 5.9515686 42.07928467 C10.23422297 40.58804291 14.48592936 39.01231059 18.74209595 37.44744873 C19.57708618 37.14524414 20.41207642 36.84303955 21.27236938 36.53167725 C25.07497346 35.38965153 25.07497346 35.38965153 28.30459595 33.25994873 C24.06566749 32.07491644 19.92837575 32.06896538 15.55459595 32.07244873 C14.72145874 32.0718042 13.88832153 32.07115967 13.02993774 32.07049561 C5.01962532 32.13738122 -2.78838116 33.03845002 -10.69540405 34.25994873 C-11.16712414 26.79978285 -10.34543536 19.57304056 -9.32040405 12.19744873 C-9.19431763 11.25683594 -9.0682312 10.31622314 -8.93832397 9.34710693 C-8.80917603 8.46111816 -8.68002808 7.57512939 -8.54696655 6.66229248 C-8.37415161 5.46334351 -8.37415161 5.46334351 -8.19784546 4.24017334 C-7.03066628 -0.35991915 -4.14993301 0.02401205 0 0 Z " fill="#040504" transform="translate(21.695404052734375,14.74005126953125)"/>
<path d="M0 0 C2.13285792 -0.00216999 4.26518366 -0.02031255 6.39794922 -0.03930664 C16.4912182 -0.08056869 27.12251645 0.11518316 36.53466797 4.18530273 C40.28294466 11.68185612 37.44679659 26.8635367 36.53466797 35.18530273 C34.68074651 37.0392242 32.11013759 36.42074477 29.64013672 36.51342773 C27.53466797 36.18530273 27.53466797 36.18530273 25.890625 34.68969727 C22.59660516 32.58630346 19.51904547 32.75507158 15.73388672 32.78686523 C14.97928665 32.78399506 14.22468658 32.78112488 13.44721985 32.77816772 C11.85274504 32.77612972 10.25824509 32.78164125 8.66381836 32.79418945 C6.24063158 32.81018089 3.81912963 32.79436792 1.39599609 32.77514648 C-0.15804401 32.77713028 -1.71208307 32.78097676 -3.26611328 32.78686523 C-3.98301834 32.78079254 -4.6999234 32.77471985 -5.43855286 32.76846313 C-10.56260052 32.83896567 -14.01413154 33.80765152 -18.46533203 36.18530273 C-20.65362083 38.9150172 -20.65362083 38.9150172 -20.59033203 41.56030273 C-19.12219342 44.98595949 -17.59940333 46.36630584 -14.40673828 48.24780273 C-7.74538309 50.37094383 -0.37038689 49.51727653 6.53466797 49.18530273 C6.53466797 48.52530273 6.53466797 47.86530273 6.53466797 47.18530273 C5.83599609 47.22010742 5.13732422 47.25491211 4.41748047 47.29077148 C3.50740234 47.3178418 2.59732422 47.34491211 1.65966797 47.37280273 C0.75474609 47.40760742 -0.15017578 47.44241211 -1.08251953 47.47827148 C-2.26201172 47.33325195 -2.26201172 47.33325195 -3.46533203 47.18530273 C-5.61342374 43.96316517 -5.75919356 42.90754873 -5.46533203 39.18530273 C-4.46533203 38.18530273 -4.46533203 38.18530273 -2.40892029 38.06504822 C-1.05323692 38.06837914 -1.05323692 38.06837914 0.32983398 38.07177734 C1.3508168 38.07185287 2.37179962 38.07192841 3.42372131 38.07200623 C4.53412277 38.07716751 5.64452423 38.0823288 6.78857422 38.08764648 C8.48444923 38.08976891 8.48444923 38.08976891 10.21458435 38.0919342 C13.84213862 38.09755254 17.46963221 38.11010816 21.09716797 38.12280273 C23.54964104 38.12781537 26.00211507 38.13237869 28.45458984 38.13647461 C34.48130342 38.14752793 40.50798136 38.1642839 46.53466797 38.18530273 C46.68327391 42.38437319 46.79199434 46.58204253 46.86425781 50.78295898 C46.89438588 52.2109646 46.935299 53.6387858 46.98730469 55.06616211 C47.06031711 57.12196284 47.09415659 59.17531486 47.12060547 61.23217773 C47.15202637 62.46806641 47.18344727 63.70395508 47.21582031 64.97729492 C46.53466797 68.18530273 46.53466797 68.18530273 43.73583984 70.515625 C40.09021632 72.41712128 36.51330613 73.95980207 32.65966797 75.37280273 C31.99064453 75.63254883 31.32162109 75.89229492 30.63232422 76.15991211 C29.62878906 76.5340625 29.62878906 76.5340625 28.60498047 76.91577148 C28.01475098 77.13644287 27.42452148 77.35711426 26.81640625 77.58447266 C20.56524357 79.23053636 14.13956069 79.36177318 7.71435547 79.42358398 C6.89323273 79.43165573 6.07210999 79.43972748 5.22610474 79.44804382 C3.49662324 79.46179102 1.76711568 79.47255444 0.03759766 79.48046875 C-1.70369617 79.49195443 -3.44495573 79.51235192 -5.18603516 79.54199219 C-31.27285014 79.98451871 -31.27285014 79.98451871 -38.68310547 73.13549805 C-39.27124023 72.49193359 -39.859375 71.84836914 -40.46533203 71.18530273 C-41.71443359 70.47567383 -41.71443359 70.47567383 -42.98876953 69.75170898 C-49.28610228 65.76869569 -53.21928514 57.12842994 -55.02783203 50.05249023 C-56.49666822 40.42636732 -56.88902124 30.6119385 -51.46533203 22.18530273 C-50.90587891 21.27006836 -50.34642578 20.35483398 -49.77001953 19.41186523 C-42.1351659 7.88230894 -32.62851895 4.22656037 -19.46533203 1.18530273 C-12.98978005 -0.07564738 -6.56769653 -0.00074616 0 0 Z " fill="#060606" transform="translate(658.46533203125,12.814697265625)"/>
<path d="M0 0 C3.72478943 1.91455404 5.88496501 3.57941513 8.30859375 7.03125 C9.32836563 10.3625048 9.77148983 12.64114722 9.24609375 16.09375 C7.30859375 18.28125 7.30859375 18.28125 5.24609375 20.09375 C4.91609375 21.08375 4.58609375 22.07375 4.24609375 23.09375 C-2.59381969 26.45152569 -9.11171242 27.12534863 -16.56640625 25.46875 C-20.56302621 22.95658888 -23.24990366 19.60575778 -24.75390625 15.09375 C-25.27618732 11.9778686 -25.41947849 9.19447144 -24.75390625 6.09375 C-18.59770955 -1.69013221 -9.24374691 -3.04191388 0 0 Z " fill="#F2F2F1" transform="translate(372.75390625,40.90625)"/>
<path d="M0 0 C1.14257263 -0.00855011 1.14257263 -0.00855011 2.30822754 -0.01727295 C3.91526917 -0.02669805 5.52232991 -0.03324701 7.12939453 -0.03710938 C9.58530205 -0.04684152 12.04038149 -0.07789781 14.49609375 -0.109375 C16.05989088 -0.11590317 17.62369397 -0.12115437 19.1875 -0.125 C19.91988892 -0.1373468 20.65227783 -0.1496936 21.40686035 -0.16241455 C25.66953405 -0.14380734 27.92911167 0.33616455 31.09375 3.203125 C33.45304642 3.56270389 33.45304642 3.56270389 35.84375 3.390625 C36.64296875 3.36355469 37.4421875 3.33648437 38.265625 3.30859375 C38.86890625 3.27378906 39.4721875 3.23898438 40.09375 3.203125 C40.09375 3.863125 40.09375 4.523125 40.09375 5.203125 C43.06375 5.203125 46.03375 5.203125 49.09375 5.203125 C49.09375 5.533125 49.09375 5.863125 49.09375 6.203125 C32.59375 6.533125 16.09375 6.863125 -0.90625 7.203125 C-1.16977314 11.93960186 -1.16977314 11.93960186 0.09375 15.203125 C3.39375 15.203125 6.69375 15.203125 10.09375 15.203125 C10.09375 15.863125 10.09375 16.523125 10.09375 17.203125 C3.94571428 19.25247024 -4.4956417 19.52782504 -10.6015625 17.15625 C-13.3823332 15.41185509 -15.58851692 13.52085808 -17.90625 11.203125 C-17.82129187 7.29505096 -17.38631016 5.68318516 -14.59375 2.890625 C-9.88111019 -0.06847442 -5.4590662 0.03167766 0 0 Z " fill="#E8E7E6" transform="translate(654.90625,44.796875)"/>
<path d="M0 0 C2.5654594 2.5654594 2.54046087 4.47686668 3 8 C3.99 8 4.98 8 6 8 C3.81663424 20.00851167 3.81663424 20.00851167 -0.0625 23.0625 C-1.031875 23.701875 -2.00125 24.34125 -3 25 C-3.66 25.99 -4.32 26.98 -5 28 C-10.06435484 29.90940719 -14.55848321 30.22020384 -19.9375 30.125 C-20.62134766 30.11597656 -21.30519531 30.10695313 -22.00976562 30.09765625 C-23.67333287 30.07438958 -25.33671631 30.03853167 -27 30 C-27 28.35 -27 26.7 -27 25 C-26.09378906 24.89042969 -25.18757813 24.78085937 -24.25390625 24.66796875 C-13.76460586 23.62723111 -13.76460586 23.62723111 -4 20 C-2.84585157 18.09798465 -2.84585157 18.09798465 -2 16 C-1.34 15.01 -0.68 14.02 0 13 C0.24246783 9.79620876 0.24246783 9.79620876 0.125 6.3125 C0.09792969 4.54326172 0.09792969 4.54326172 0.0703125 2.73828125 C0.04710937 1.83464844 0.02390625 0.93101563 0 0 Z " fill="#ADABAB" transform="translate(309,28)"/>
<path d="M0 0 C0.33 0 0.66 0 1 0 C4.58165209 21.60739583 4.58165209 21.60739583 4 31 C-1.7924724 30.36809392 -7.32598399 29.3298475 -13 28 C-13 32.95 -13 37.9 -13 43 C-9.7 43 -6.4 43 -3 43 C-5 45 -5 45 -7.6015625 45.1953125 C-9.09816406 45.16050781 -9.09816406 45.16050781 -10.625 45.125 C-11.62789062 45.10695312 -12.63078125 45.08890625 -13.6640625 45.0703125 C-14.82035156 45.03550781 -14.82035156 45.03550781 -16 45 C-16 44.01 -16 43.02 -16 42 C-15.34 42 -14.68 42 -14 42 C-14 37.71 -14 33.42 -14 29 C-25.55 29 -37.1 29 -49 29 C-49 28.01 -49 27.02 -49 26 C-43.6838681 25.92498403 -38.36805463 25.87099545 -33.05151367 25.83520508 C-31.24872459 25.82026084 -29.44597094 25.79989796 -27.64331055 25.77368164 C-16.96789341 25.62248856 -7.29943168 25.85810069 3 29 C2.68289062 27.73285156 2.36578125 26.46570313 2.0390625 25.16015625 C0.87487333 19.92130498 0.56344058 14.78842741 0.375 9.4375 C0.31699219 8.06754883 0.31699219 8.06754883 0.2578125 6.66992188 C0.16469748 4.44680076 0.07887834 2.22366387 0 0 Z " fill="#5B5959" transform="translate(198,17)"/>
<path d="M0 0 C1.77206192 0.00015919 3.54412846 0.00585754 5.31616211 0.01586914 C6.24698105 0.01728409 7.17779999 0.01869904 8.13682556 0.02015686 C11.12241777 0.02577367 14.10793615 0.03832899 17.09350586 0.05102539 C19.11238499 0.05603823 21.13126529 0.06060151 23.15014648 0.06469727 C28.11046158 0.07574856 33.07072118 0.09302444 38.03100586 0.11352539 C38.03100586 0.44352539 38.03100586 0.77352539 38.03100586 1.11352539 C24.50100586 1.11352539 10.97100586 1.11352539 -2.96899414 1.11352539 C-2.30899414 7.38352539 -1.64899414 13.65352539 -0.96899414 20.11352539 C-0.82193317 24.84019164 -0.73043916 29.49841243 -0.77368164 34.21899414 C-0.77651154 35.43508865 -0.77934143 36.65118317 -0.78225708 37.90412903 C-0.79325198 41.70320446 -0.81831375 45.50202397 -0.84399414 49.30102539 C-0.8540508 51.91235006 -0.86317187 54.5236785 -0.87133789 57.13500977 C-0.89312282 63.46127686 -0.9275027 69.78735811 -0.96899414 76.11352539 C3.32100586 76.11352539 7.61100586 76.11352539 12.03100586 76.11352539 C12.03100586 76.44352539 12.03100586 76.77352539 12.03100586 77.11352539 C7.41100586 77.11352539 2.79100586 77.11352539 -1.96899414 77.11352539 C-1.98881348 76.11949707 -2.00863281 75.12546875 -2.02905273 74.10131836 C-2.40945922 55.55590523 -2.91656925 37.05896439 -4.30834961 18.55834961 C-5.18491324 6.89458515 -5.18491324 6.89458515 -4.96899414 1.11352539 C-3.96899414 0.11352539 -3.96899414 0.11352539 0 0 Z M-8.96899414 23.11352539 C-6.96899414 24.11352539 -6.96899414 24.11352539 -5.82836914 27.46508789 C-5.44950039 28.88717975 -5.08011982 30.31182465 -4.71899414 31.73852539 C-4.52047852 32.43848633 -4.32196289 33.13844727 -4.11743164 33.85961914 C-2.80614548 38.98123682 -3.12229615 42.15865261 -4.96899414 47.11352539 C-5.29899414 47.11352539 -5.62899414 47.11352539 -5.96899414 47.11352539 C-6.01797852 46.05133789 -6.06696289 44.98915039 -6.11743164 43.89477539 C-6.65259629 33.36851252 -6.65259629 33.36851252 -8.96899414 23.11352539 Z " fill="#BCBABA" transform="translate(422.968994140625,13.886474609375)"/>
<path d="M0 0 C13.53 0 27.06 0 41 0 C41 10.09615385 41 10.09615385 40.5625 13.9453125 C40.47210449 14.78811768 40.38170898 15.63092285 40.28857422 16.49926758 C40.19334473 17.36575928 40.09811523 18.23225098 40 19.125 C39.09973026 27.8180849 38.82350956 36.26372335 39 45 C47.25 45.33 55.5 45.66 64 46 C60.7338047 48.17746353 59.75054166 48.25606429 55.96484375 48.265625 C54.50401367 48.26949219 54.50401367 48.26949219 53.01367188 48.2734375 C51.99853516 48.26570313 50.98339844 48.25796875 49.9375 48.25 C48.91849609 48.25773437 47.89949219 48.26546875 46.84960938 48.2734375 C45.87701172 48.27085938 44.90441406 48.26828125 43.90234375 48.265625 C43.01023193 48.26336914 42.11812012 48.26111328 41.19897461 48.25878906 C39 48 39 48 37 46 C36.79228682 43.08590632 36.71879439 40.28938126 36.75 37.375 C36.75386719 36.50649414 36.75773437 35.63798828 36.76171875 34.74316406 C36.9010176 23.78111873 37.98506555 12.91054539 39 2 C26.46 2 13.92 2 1 2 C1 4.97 1 7.94 1 11 C0.67 11 0.34 11 0 11 C0 7.37 0 3.74 0 0 Z " fill="#403F3F" transform="translate(420,15)"/>
<path d="M0 0 C1.01964844 -0.01224609 2.03929687 -0.02449219 3.08984375 -0.03710938 C4.55744141 -0.04000977 4.55744141 -0.04000977 6.0546875 -0.04296875 C6.95429199 -0.04707764 7.85389648 -0.05118652 8.78076172 -0.05541992 C11.125 0.1875 11.125 0.1875 14.125 2.1875 C14.125 3.5075 14.125 4.8275 14.125 6.1875 C10.60672372 7.77995395 7.89802648 8.43011382 4.04296875 8.3828125 C2.64594727 8.37314453 2.64594727 8.37314453 1.22070312 8.36328125 C0.26099609 8.34652344 -0.69871094 8.32976563 -1.6875 8.3125 C-2.66654297 8.30347656 -3.64558594 8.29445313 -4.65429688 8.28515625 C-7.06145061 8.26167182 -9.46809743 8.2288284 -11.875 8.1875 C-11.91741723 5.85455225 -11.91592937 3.52047433 -11.875 1.1875 C-9.46387261 -1.22362739 -3.23934528 0.00203221 0 0 Z " fill="#B2B1B0" transform="translate(259.875,44.8125)"/>
<path d="M0 0 C0.66 0 1.32 0 2 0 C2.67610423 1.89248819 3.34050439 3.7891602 4 5.6875 C4.37125 6.74324219 4.7425 7.79898438 5.125 8.88671875 C5.9391857 11.78362056 6.17709796 14.01700623 6 17 C4.35 17 2.7 17 1 17 C1 20.3 1 23.6 1 27 C-2.3 27.66 -5.6 28.32 -9 29 C-9.99 32.63 -10.98 36.26 -12 40 C-13.18102617 35.27589534 -12.91870698 32.74665271 -12 28 C-8.3558226 25.5705484 -6.28758728 25.83820425 -2 26 C-2 23.03 -2 20.06 -2 17 C-2.99 17 -3.98 17 -5 17 C-4.53444296 10.59859065 -2.85288164 5.73230171 0 0 Z " fill="#D2D0CF" transform="translate(555,47)"/>
<path d="M0 0 C1.34152827 2.68305654 0.91701204 4.46608021 0.625 7.4375 C0.53476563 8.40558594 0.44453125 9.37367187 0.3515625 10.37109375 C0 13 0 13 -1 16 C-1.22718496 18.56634861 -1.41608184 21.11678107 -1.5625 23.6875 C-1.60568359 24.38939453 -1.64886719 25.09128906 -1.69335938 25.81445312 C-1.7991736 27.54275206 -1.90006581 29.2713511 -2 31 C-1.36102783 30.67402832 -0.72205566 30.34805664 -0.0637207 30.01220703 C4.03290924 28.65874239 7.73526681 28.75122905 12.01953125 28.8046875 C13.30738777 28.80893234 13.30738777 28.80893234 14.6212616 28.81326294 C17.35181875 28.8244193 20.0820427 28.84951541 22.8125 28.875 C24.66861504 28.88503568 26.52473524 28.8941605 28.38085938 28.90234375 C32.92070046 28.92434374 37.46029381 28.95884219 42 29 C42 29.99 42 30.98 42 32 C40.42274653 32.70133599 38.83788667 33.385583 37.25 34.0625 C36.36828125 34.44535156 35.4865625 34.82820313 34.578125 35.22265625 C31.84743691 36.04600008 30.63098653 35.9773992 28 35 C30.31 34.01 32.62 33.02 35 32 C30.76107154 30.81496771 26.62377981 30.80901665 22.25 30.8125 C21.41686279 30.81185547 20.58372559 30.81121094 19.7253418 30.81054688 C11.71502937 30.87743249 3.90702289 31.77850129 -4 33 C-4.47382529 25.50654084 -3.62147148 18.27779235 -2.5625 10.875 C-2.360802 9.45151245 -2.360802 9.45151245 -2.1550293 7.99926758 C-1.13287862 1.13287862 -1.13287862 1.13287862 0 0 Z " fill="#8F8E8F" transform="translate(15,16)"/>
<path d="M0 0 C7.79619588 -0.05057624 15.5923497 -0.08568114 23.38867188 -0.10986328 C26.04265931 -0.11994089 28.6966356 -0.13360313 31.35058594 -0.15087891 C35.15823107 -0.17504992 38.96572984 -0.18646535 42.7734375 -0.1953125 C44.56254044 -0.21079636 44.56254044 -0.21079636 46.38778687 -0.22659302 C47.48877716 -0.22674408 48.58976746 -0.22689514 49.72412109 -0.22705078 C51.1830629 -0.23371262 51.1830629 -0.23371262 52.67147827 -0.24050903 C55 0 55 0 57 2 C57.90903991 4.68341588 58.73247038 7.33897046 59.5 10.0625 C59.83318237 11.21951416 59.83318237 11.21951416 60.1730957 12.39990234 C61.64409608 17.56775177 62.89722572 22.74061497 64 28 C64.62736012 30.34711652 65.30633884 32.67128039 66 35 C62.52788376 32.31516593 61.68467558 28.66398997 60.5 24.625 C60.28641846 23.92052734 60.07283691 23.21605469 59.8527832 22.49023438 C57.93874707 16.05849405 56.38305987 9.56672327 55 3 C51.56856583 2.2323484 48.35593876 1.85694069 44.8425293 1.79467773 C43.34153938 1.7647599 43.34153938 1.7647599 41.81022644 1.73423767 C40.7423439 1.71752518 39.67446136 1.70081268 38.57421875 1.68359375 C37.47149124 1.66281265 36.36876373 1.64203156 35.23262024 1.62062073 C31.71764222 1.55535068 28.20259088 1.49634505 24.6875 1.4375 C22.30142477 1.39429335 19.91535691 1.35067837 17.52929688 1.30664062 C11.68627494 1.1996924 5.84318042 1.09788445 0 1 C0 0.67 0 0.34 0 0 Z " fill="#6B6A6A" transform="translate(528,15)"/>
<path d="M0 0 C1.32 0.33 2.64 0.66 4 1 C3.030625 1.45375 2.06125 1.9075 1.0625 2.375 C-2.07079582 3.65786221 -2.07079582 3.65786221 -3 6 C-3.66 6 -4.32 6 -5 6 C-5 13.59 -5 21.18 -5 29 C10.84 29 26.68 29 43 29 C43 29.33 43 29.66 43 30 C26.5 30 10 30 -7 30 C-7 22.08 -7 14.16 -7 6 C-4.69 4.02 -2.38 2.04 0 0 Z " fill="#3D3D3D" transform="translate(14,62)"/>
<path d="M0 0 C1.35568336 0.00333092 1.35568336 0.00333092 2.73875427 0.00672913 C3.75973709 0.00680466 4.78071991 0.00688019 5.8326416 0.00695801 C6.94304306 0.01211929 8.05344452 0.01728058 9.19749451 0.02259827 C10.89336952 0.02472069 10.89336952 0.02472069 12.62350464 0.02688599 C16.25105891 0.03250433 19.8785525 0.04505994 23.50608826 0.05775452 C25.95856133 0.06276715 28.41103536 0.06733047 30.86351013 0.07142639 C36.89024529 0.08163082 42.91684848 0.10120265 48.94358826 0.12025452 C48.94358826 10.02025452 48.94358826 19.92025452 48.94358826 30.12025452 C48.61358826 30.12025452 48.28358826 30.12025452 47.94358826 30.12025452 C47.61358826 20.88025452 47.28358826 11.64025452 46.94358826 2.12025452 C31.43358826 1.79025452 15.92358826 1.46025452 -0.05641174 1.12025452 C-0.38641174 3.10025452 -0.71641174 5.08025452 -1.05641174 7.12025452 C-1.71641174 6.79025452 -2.37641174 6.46025452 -3.05641174 6.12025452 C-3.09913274 4.45413547 -3.09705006 2.78642567 -3.05641174 1.12025452 C-2.05641174 0.12025452 -2.05641174 0.12025452 0 0 Z " fill="#313131" transform="translate(656.0564117431641,50.87974548339844)"/>
<path d="M0 0 C7.59 0 15.18 0 23 0 C23.33 1.32 23.66 2.64 24 4 C16.08 4 8.16 4 0 4 C0 2.68 0 1.36 0 0 Z " fill="#FDFDFC" transform="translate(249,47)"/>
<path d="M0 0 C1.34152827 2.68305654 0.91701204 4.46608021 0.625 7.4375 C0.53476563 8.40558594 0.44453125 9.37367187 0.3515625 10.37109375 C0 13 0 13 -1 16 C-1.22718496 18.56634861 -1.41608184 21.11678107 -1.5625 23.6875 C-1.60568359 24.38939453 -1.64886719 25.09128906 -1.69335938 25.81445312 C-1.7991736 27.54275206 -1.90006581 29.2713511 -2 31 C-1.23300781 30.67257813 -0.46601563 30.34515625 0.32421875 30.0078125 C3.09718753 28.96339506 5.06773447 28.83244197 8 29 C6.66666667 29.66666667 5.33333333 30.33333333 4 31 C3.01 31.556875 3.01 31.556875 2 32.125 C0 33 0 33 -4 33 C-4.47382529 25.50654084 -3.62147148 18.27779235 -2.5625 10.875 C-2.360802 9.45151245 -2.360802 9.45151245 -2.1550293 7.99926758 C-1.13287862 1.13287862 -1.13287862 1.13287862 0 0 Z " fill="#5C5C5B" transform="translate(15,16)"/>
<path d="M0 0 C0.99 0 1.98 0 3 0 C3 3.3 3 6.6 3 10 C-0.3 10.66 -3.6 11.32 -7 12 C-8.485 17.445 -8.485 17.445 -10 23 C-11.18102617 18.27589534 -10.91870698 15.74665271 -10 11 C-6.3558226 8.5705484 -4.28758728 8.83820425 0 9 C0 6.03 0 3.06 0 0 Z " fill="#848485" transform="translate(553,64)"/>
<path d="M0 0 C0 0.99 0 1.98 0 3 C-4.46334184 4.72293135 -8.10201231 5.22240791 -12.875 5.125 C-14.02742188 5.10695313 -15.17984375 5.08890625 -16.3671875 5.0703125 C-17.23601562 5.04710937 -18.10484375 5.02390625 -19 5 C-19 4.34 -19 3.68 -19 3 C-16.96040523 2.49161436 -14.91820862 1.99366114 -12.875 1.5 C-11.73804688 1.2215625 -10.60109375 0.943125 -9.4296875 0.65625 C-6.18533302 0.03546235 -3.29185543 -0.12006768 0 0 Z " fill="#F4F3F3" transform="translate(302,52)"/>
<path d="M0 0 C1.15371094 -0.01417969 2.30742187 -0.02835938 3.49609375 -0.04296875 C6.5625 0.1875 6.5625 0.1875 9.5625 2.1875 C8.6446875 2.10628906 7.726875 2.02507813 6.78125 1.94140625 C-1.81302598 1.40050032 -1.81302598 1.40050032 -9.1875 5.25 C-12.44035427 8.65576623 -13.68493578 11.57804414 -14.4375 16.1875 C-14.7675 16.1875 -15.0975 16.1875 -15.4375 16.1875 C-15.8721406 13.08292431 -16.0264479 10.27821806 -15.4375 7.1875 C-11.14963489 1.71793978 -6.77189103 0.03774744 0 0 Z " fill="#C6C6C5" transform="translate(363.4375,39.8125)"/>
<path d="M0 0 C1.97566188 1.97566188 2.89579072 3.52337094 4.125 6 C4.47820313 6.70125 4.83140625 7.4025 5.1953125 8.125 C6 10 6 10 6 12 C5.34 12 4.68 12 4 12 C3.01 13.485 3.01 13.485 2 15 C1.13624104 13.38007835 0.28424146 11.75388139 -0.5625 10.125 C-1.03816406 9.22007813 -1.51382813 8.31515625 -2.00390625 7.3828125 C-2.33261719 6.59648438 -2.66132812 5.81015625 -3 5 C-2.67 4.34 -2.34 3.68 -2 3 C-1.34 3.33 -0.68 3.66 0 4 C0 2.68 0 1.36 0 0 Z " fill="#BAB5B5" transform="translate(604,65)"/>
<path d="M0 0 C0 0.66 0 1.32 0 2 C10.56 2 21.12 2 32 2 C32 2.33 32 2.66 32 3 C19.46 3 6.92 3 -6 3 C-4.60722783 0.21445565 -3.01148006 0 0 0 Z " fill="#A9A8A7" transform="translate(57,58)"/>
<path d="M0 0 C-0.928125 0.433125 -1.85625 0.86625 -2.8125 1.3125 C-6.36092822 3.17883544 -6.36092822 3.17883544 -9 6 C-9.5040817 8.50873159 -9.5040817 8.50873159 -9.51171875 11.32421875 C-9.54716797 12.35224609 -9.58261719 13.38027344 -9.61914062 14.43945312 C-9.64169922 15.51130859 -9.66425781 16.58316406 -9.6875 17.6875 C-9.72166016 18.77095703 -9.75582031 19.85441406 -9.79101562 20.97070312 C-9.8735456 23.6470322 -9.94267937 26.32303159 -10 29 C-10.33 29 -10.66 29 -11 29 C-11.20416594 25.12578299 -11.32791537 21.25295408 -11.4375 17.375 C-11.52547852 15.73337891 -11.52547852 15.73337891 -11.61523438 14.05859375 C-11.78277373 6.1603097 -11.78277373 6.1603097 -9.55126953 2.85253906 C-6.23684747 -0.20788056 -4.4474354 -1.59859468 0 0 Z " fill="#929291" transform="translate(18,63)"/>
<path d="M0 0 C2 2 2 2 2.5 5.0625 C2.665 6.031875 2.83 7.00125 3 8 C3.66 8.33 4.32 8.66 5 9 C4.01 12.3 3.02 15.6 2 19 C0 17 0 17 -0.1953125 13.0859375 C-0.18200376 11.51550649 -0.15813602 9.94513779 -0.125 8.375 C-0.11597656 7.57320312 -0.10695313 6.77140625 -0.09765625 5.9453125 C-0.07406223 3.96341477 -0.03819065 1.98167019 0 0 Z " fill="#D9D7D6" transform="translate(309,28)"/>
<path d="M0 0 C10.56 0 21.12 0 32 0 C32 0.99 32 1.98 32 3 C31.01 3 30.02 3 29 3 C29 2.34 29 1.68 29 1 C19.43 1 9.86 1 0 1 C0 0.67 0 0.34 0 0 Z " fill="#383738" transform="translate(28,44)"/>
<path d="M0 0 C0 0.66 0 1.32 0 2 C-0.99 2 -1.98 2 -3 2 C-3.20625 2.53625 -3.4125 3.0725 -3.625 3.625 C-5.53250426 6.91978009 -8.04819384 9.59363628 -11 12 C-11.66 12 -12.32 12 -13 12 C-10.64197021 6.69443298 -6.48377336 0 0 0 Z " fill="#383839" transform="translate(623,20)"/>
<path d="M0 0 C0.33 0 0.66 0 1 0 C1 2.64 1 5.28 1 8 C0.34 8 -0.32 8 -1 8 C-1.03738281 8.68707031 -1.07476563 9.37414063 -1.11328125 10.08203125 C-1.17902344 10.98308594 -1.24476563 11.88414063 -1.3125 12.8125 C-1.37050781 13.70582031 -1.42851563 14.59914063 -1.48828125 15.51953125 C-2.06313581 18.30604 -2.8206856 19.24135754 -5 21 C-4.54655971 18.6239729 -4.08740741 16.24928419 -3.625 13.875 C-3.49867188 13.20984375 -3.37234375 12.5446875 -3.2421875 11.859375 C-2.4425726 7.781339 -1.40130515 3.91146915 0 0 Z " fill="#5B595A" transform="translate(524,29)"/>
<path d="M0 0 C2.97 0 5.94 0 9 0 C9 0.66 9 1.32 9 2 C5.42914986 3.19028338 2.1539317 3.18398398 -1.5625 3.1875 C-2.24763672 3.19974609 -2.93277344 3.21199219 -3.63867188 3.22460938 C-5.42734112 3.22987533 -7.21548848 3.12200021 -9 3 C-9.66 2.34 -10.32 1.68 -11 1 C-7.37 1 -3.74 1 0 1 C0 0.67 0 0.34 0 0 Z " fill="#959392" transform="translate(656,60)"/>
<path d="M0 0 C5.08447025 -0.78896952 5.08447025 -0.78896952 8 0 C10.83732403 2.93823305 14 6.76923163 14 11 C13.34 11 12.68 11 12 11 C8.125 4.25 8.125 4.25 7 2 C4.67843403 1.59270772 2.3431213 1.25561323 0 1 C0 0.67 0 0.34 0 0 Z " fill="#A4A3A3" transform="translate(249,59)"/>
<path d="M0 0 C3.3 0 6.6 0 10 0 C6.83671438 4.21771415 5.91871293 4.89579914 1 6 C-1.375 5.625 -1.375 5.625 -3 5 C-0.69 4.01 1.62 3.02 4 2 C2.68 1.34 1.36 0.68 0 0 Z " fill="#ADACAB" transform="translate(46,46)"/>
<path d="M0 0 C1.48831242 0.00667405 2.97660807 0.01863442 4.46484375 0.03515625 C5.22345703 0.03966797 5.98207031 0.04417969 6.76367188 0.04882812 C8.64326246 0.06064945 10.52281274 0.07858547 12.40234375 0.09765625 C12.40234375 0.42765625 12.40234375 0.75765625 12.40234375 1.09765625 C7.78234375 1.09765625 3.16234375 1.09765625 -1.59765625 1.09765625 C-1.92765625 3.07765625 -2.25765625 5.05765625 -2.59765625 7.09765625 C-3.25765625 6.76765625 -3.91765625 6.43765625 -4.59765625 6.09765625 C-4.64037725 4.4315372 -4.63829457 2.7638274 -4.59765625 1.09765625 C-3.59765625 0.09765625 -3.59765625 0.09765625 0 0 Z " fill="#393A39" transform="translate(657.59765625,50.90234375)"/>
<path d="M0 0 C0 0.99 0 1.98 0 3 C-1.65 3.33 -3.3 3.66 -5 4 C-5 3.34 -5 2.68 -5 2 C-5.99 1.67 -6.98 1.34 -8 1 C-5.29120665 -0.35439668 -2.99066732 -0.06501451 0 0 Z " fill="#EEEDEC" transform="translate(302,52)"/>
<path d="M0 0 C0.33 0 0.66 0 1 0 C1.33 2.97 1.66 5.94 2 9 C1.01 9 0.02 9 -1 9 C-1.66 7.02 -2.32 5.04 -3 3 C-2.01 3.33 -1.02 3.66 0 4 C0 2.68 0 1.36 0 0 Z " fill="#CDCBCA" transform="translate(604,65)"/>
<path d="M0 0 C0.8971875 0.309375 0.8971875 0.309375 1.8125 0.625 C0.843125 1.07875 -0.12625 1.5325 -1.125 2 C-4.25829582 3.28286221 -4.25829582 3.28286221 -5.1875 5.625 C-5.8475 5.625 -6.5075 5.625 -7.1875 5.625 C-5.69046729 2.17030914 -4.27938051 -0.73360809 0 0 Z " fill="#565656" transform="translate(16.1875,62.375)"/>
<path d="M0 0 C0.99 0 1.98 0 3 0 C3 2.31 3 4.62 3 7 C2.01 6.67 1.02 6.34 0 6 C0 4.02 0 2.04 0 0 Z " fill="#747172" transform="translate(553,64)"/>
</svg>
